<svg xmlns="http://www.w3.org/2000/svg" xmlns:xlink="http://www.w3.org/1999/xlink" contentStyleType="text/css" height="698px" preserveAspectRatio="none" style="width:815px;height:698px;background:#FFFFFF;" version="1.1" viewBox="0 0 815 698" width="815px" zoomAndPan="magnify"><defs/><g><!--class Utilisateur--><g id="elem_Utilisateur"><rect codeLine="1" fill="#F1F1F1" height="145.7813" id="Utilisateur" rx="2.5" ry="2.5" style="stroke:#181818;stroke-width:0.5;" width="131.5469" x="15.31" y="15.15"/><ellipse cx="42.7017" cy="31.15" fill="#A9DCDF" rx="11" ry="11" style="stroke:#181818;stroke-width:1.0;"/><path d="M42.8111,26.4937 L41.6548,31.5719 L43.9829,31.5719 L42.8111,26.4937 Z M41.3267,24.2594 L44.3111,24.2594 L47.6704,36.65 L45.2173,36.65 L44.4517,33.5875 L41.1704,33.5875 L40.4204,36.65 L37.9829,36.65 L41.3267,24.2594 Z " fill="#000000"/><text fill="#000000" font-family="sans-serif" font-size="14" font-style="italic" lengthAdjust="spacing" textLength="72.0098" x="59.4554" y="35.9967">Utilisateur</text><line style="stroke:#181818;stroke-width:0.5;" x1="16.31" x2="145.8569" y1="47.15" y2="47.15"/><polygon fill="none" points="26.31,55.7984,30.31,59.7984,26.31,63.7984,22.31,59.7984" style="stroke:#B38D22;stroke-width:1.0;"/><text fill="#000000" font-family="sans-serif" font-size="14" lengthAdjust="spacing" textLength="89.7832" x="35.31" y="64.1451">String userId</text><polygon fill="none" points="26.31,72.0953,30.31,76.0953,26.31,80.0953,22.31,76.0953" style="stroke:#B38D22;stroke-width:1.0;"/><text fill="#000000" font-family="sans-serif" font-size="14" lengthAdjust="spacing" textLength="105.5469" x="35.31" y="80.442">String userPwd</text><ellipse cx="26.31" cy="93.3922" fill="none" rx="3" ry="3" style="stroke:#038048;stroke-width:1.0;"/><text fill="#000000" font-family="sans-serif" font-size="14" lengthAdjust="spacing" textLength="77.3076" x="35.31" y="96.7389">String nom</text><ellipse cx="26.31" cy="109.6891" fill="none" rx="3" ry="3" style="stroke:#038048;stroke-width:1.0;"/><text fill="#000000" font-family="sans-serif" font-size="14" lengthAdjust="spacing" textLength="100.5635" x="35.31" y="113.0357">String prenom</text><ellipse cx="26.31" cy="125.9859" fill="none" rx="3" ry="3" style="stroke:#038048;stroke-width:1.0;"/><text fill="#000000" font-family="sans-serif" font-size="14" lengthAdjust="spacing" textLength="101.2676" x="35.31" y="129.3326">String adresse</text><ellipse cx="26.31" cy="142.2828" fill="none" rx="3" ry="3" style="stroke:#038048;stroke-width:1.0;"/><text fill="#000000" font-family="sans-serif" font-size="14" lengthAdjust="spacing" textLength="95.1426" x="35.31" y="145.6295">boolean male</text><line style="stroke:#181818;stroke-width:0.5;" x1="16.31" x2="145.8569" y1="152.9312" y2="152.9312"/></g><!--class Client--><g id="elem_Client"><rect codeLine="10" fill="#F1F1F1" height="113.1875" id="Client" rx="2.5" ry="2.5" style="stroke:#181818;stroke-width:0.5;" width="309.1787" x="190.49" y="246.08"/><ellipse cx="320.5642" cy="262.08" fill="#ADD1B2" rx="11" ry="11" style="stroke:#181818;stroke-width:1.0;"/><path d="M323.533,267.7206 Q322.9548,268.0175 322.3142,268.1581 Q321.6736,268.3144 320.9705,268.3144 Q318.4705,268.3144 317.1423,266.6737 Q315.8298,265.0175 315.8298,261.8925 Q315.8298,258.7675 317.1423,257.1112 Q318.4705,255.455 320.9705,255.455 Q321.6736,255.455 322.3142,255.6112 Q322.9705,255.7675 323.533,256.0644 L323.533,258.7831 Q322.908,258.205 322.3142,257.9394 Q321.7205,257.6581 321.0955,257.6581 Q319.7517,257.6581 319.0642,258.7362 Q318.3767,259.7987 318.3767,261.8925 Q318.3767,263.9862 319.0642,265.0644 Q319.7517,266.1269 321.0955,266.1269 Q321.7205,266.1269 322.3142,265.8612 Q322.908,265.58 323.533,265.0019 L323.533,267.7206 Z " fill="#000000"/><text fill="#000000" font-family="sans-serif" font-size="14" lengthAdjust="spacing" textLength="40.5303" x="341.0642" y="266.9267">Client</text><line style="stroke:#181818;stroke-width:0.5;" x1="191.49" x2="498.6687" y1="278.08" y2="278.08"/><ellipse cx="201.49" cy="291.7284" fill="none" rx="3" ry="3" style="stroke:#038048;stroke-width:1.0;"/><text fill="#000000" font-family="sans-serif" font-size="14" lengthAdjust="spacing" textLength="141.0801" x="210.49" y="295.0751">String numeroClient</text><ellipse cx="201.49" cy="308.0253" fill="none" rx="3" ry="3" style="stroke:#038048;stroke-width:1.0;"/><text fill="#000000" font-family="sans-serif" font-size="14" lengthAdjust="spacing" textLength="226.1738" x="210.49" y="311.372">Map&lt;String, Compte&gt; accounts</text><line style="stroke:#181818;stroke-width:0.5;" x1="191.49" x2="498.6687" y1="318.6737" y2="318.6737"/><ellipse cx="201.49" cy="332.3222" fill="#84BE84" rx="3" ry="3" style="stroke:#038048;stroke-width:1.0;"/><text fill="#000000" font-family="sans-serif" font-size="14" lengthAdjust="spacing" textLength="254.3174" x="210.49" y="335.6689">addAccount(compte: Compte) : void</text><ellipse cx="201.49" cy="348.6191" fill="#84BE84" rx="3" ry="3" style="stroke:#038048;stroke-width:1.0;"/><text fill="#000000" font-family="sans-serif" font-size="14" lengthAdjust="spacing" textLength="283.1787" x="210.49" y="351.9657">possedeComptesADecouvert() : boolean</text></g><!--class Gestionnaire--><g id="elem_Gestionnaire"><rect codeLine="17" fill="#F1F1F1" height="64.2969" id="Gestionnaire" rx="2.5" ry="2.5" style="stroke:#181818;stroke-width:0.5;" width="148.1582" x="7" y="270.53"/><ellipse cx="34.0933" cy="286.53" fill="#ADD1B2" rx="11" ry="11" style="stroke:#181818;stroke-width:1.0;"/><path d="M37.0621,292.1706 Q36.4839,292.4675 35.8433,292.6081 Q35.2027,292.7644 34.4996,292.7644 Q31.9996,292.7644 30.6714,291.1238 Q29.3589,289.4675 29.3589,286.3425 Q29.3589,283.2175 30.6714,281.5613 Q31.9996,279.905 34.4996,279.905 Q35.2027,279.905 35.8433,280.0613 Q36.4996,280.2175 37.0621,280.5144 L37.0621,283.2331 Q36.4371,282.655 35.8433,282.3894 Q35.2496,282.1081 34.6246,282.1081 Q33.2808,282.1081 32.5933,283.1863 Q31.9058,284.2488 31.9058,286.3425 Q31.9058,288.4363 32.5933,289.5144 Q33.2808,290.5769 34.6246,290.5769 Q35.2496,290.5769 35.8433,290.3113 Q36.4371,290.03 37.0621,289.4519 L37.0621,292.1706 Z " fill="#000000"/><text fill="#000000" font-family="sans-serif" font-size="14" lengthAdjust="spacing" textLength="89.2842" x="50.7807" y="291.3767">Gestionnaire</text><line style="stroke:#181818;stroke-width:0.5;" x1="8" x2="154.1582" y1="302.53" y2="302.53"/><line style="stroke:#181818;stroke-width:0.5;" x1="8" x2="154.1582" y1="310.53" y2="310.53"/><ellipse cx="18" cy="324.1784" fill="#84BE84" rx="3" ry="3" style="stroke:#038048;stroke-width:1.0;"/><text fill="#000000" font-family="sans-serif" font-size="14" lengthAdjust="spacing" textLength="122.1582" x="27" y="327.5251">toString() : String</text></g><!--class Compte--><g id="elem_Compte"><rect codeLine="21" fill="#F1F1F1" height="113.1875" id="Compte" rx="2.5" ry="2.5" style="stroke:#181818;stroke-width:0.5;" width="251.2578" x="301.45" y="436.27"/><ellipse cx="395.345" cy="452.27" fill="#A9DCDF" rx="11" ry="11" style="stroke:#181818;stroke-width:1.0;"/><path d="M395.4544,447.6138 L394.2981,452.6919 L396.6263,452.6919 L395.4544,447.6138 Z M393.97,445.3794 L396.9544,445.3794 L400.3138,457.77 L397.8606,457.77 L397.095,454.7075 L393.8138,454.7075 L393.0638,457.77 L390.6263,457.77 L393.97,445.3794 Z " fill="#000000"/><text fill="#000000" font-family="sans-serif" font-size="14" font-style="italic" lengthAdjust="spacing" textLength="54.9678" x="415.845" y="457.1167">Compte</text><line style="stroke:#181818;stroke-width:0.5;" x1="302.45" x2="551.7078" y1="468.27" y2="468.27"/><polygon fill="none" points="312.45,476.9184,316.45,480.9184,312.45,484.9184,308.45,480.9184" style="stroke:#B38D22;stroke-width:1.0;"/><text fill="#000000" font-family="sans-serif" font-size="14" lengthAdjust="spacing" textLength="155.5176" x="321.45" y="485.2651">String numeroCompte</text><polygon fill="none" points="312.45,493.2153,316.45,497.2153,312.45,501.2153,308.45,497.2153" style="stroke:#B38D22;stroke-width:1.0;"/><text fill="#000000" font-family="sans-serif" font-size="14" lengthAdjust="spacing" textLength="89.4141" x="321.45" y="501.562">double solde</text><line style="stroke:#181818;stroke-width:0.5;" x1="302.45" x2="551.7078" y1="508.8638" y2="508.8638"/><ellipse cx="312.45" cy="522.5122" fill="#84BE84" rx="3" ry="3" style="stroke:#038048;stroke-width:1.0;"/><text fill="#000000" font-family="sans-serif" font-size="14" lengthAdjust="spacing" textLength="220.6914" x="321.45" y="525.8589">debiter(montant: double) : void</text><ellipse cx="312.45" cy="538.8091" fill="#84BE84" rx="3" ry="3" style="stroke:#038048;stroke-width:1.0;"/><text fill="#000000" font-family="sans-serif" font-size="14" lengthAdjust="spacing" textLength="225.2578" x="321.45" y="542.1557">crediter(montant: double) : void</text></g><!--class CompteAvecDecouvert--><g id="elem_CompteAvecDecouvert"><rect codeLine="28" fill="#F1F1F1" height="80.5938" id="CompteAvecDecouvert" rx="2.5" ry="2.5" style="stroke:#181818;stroke-width:0.5;" width="246.6914" x="162.73" y="610.46"/><ellipse cx="201.5251" cy="626.46" fill="#ADD1B2" rx="11" ry="11" style="stroke:#181818;stroke-width:1.0;"/><path d="M204.4938,632.1006 Q203.9157,632.3975 203.2751,632.5381 Q202.6344,632.6944 201.9313,632.6944 Q199.4313,632.6944 198.1032,631.0537 Q196.7907,629.3975 196.7907,626.2725 Q196.7907,623.1475 198.1032,621.4912 Q199.4313,619.835 201.9313,619.835 Q202.6344,619.835 203.2751,619.9912 Q203.9313,620.1475 204.4938,620.4444 L204.4938,623.1631 Q203.8688,622.585 203.2751,622.3194 Q202.6813,622.0381 202.0563,622.0381 Q200.7126,622.0381 200.0251,623.1162 Q199.3376,624.1787 199.3376,626.2725 Q199.3376,628.3662 200.0251,629.4444 Q200.7126,630.5069 202.0563,630.5069 Q202.6813,630.5069 203.2751,630.2412 Q203.8688,629.96 204.4938,629.3819 L204.4938,632.1006 Z " fill="#000000"/><text fill="#000000" font-family="sans-serif" font-size="14" lengthAdjust="spacing" textLength="161.8135" x="220.8129" y="631.3067">CompteAvecDecouvert</text><line style="stroke:#181818;stroke-width:0.5;" x1="163.73" x2="408.4214" y1="642.46" y2="642.46"/><ellipse cx="173.73" cy="656.1084" fill="none" rx="3" ry="3" style="stroke:#038048;stroke-width:1.0;"/><text fill="#000000" font-family="sans-serif" font-size="14" lengthAdjust="spacing" textLength="181.002" x="182.73" y="659.4551">double decouvertAutorise</text><line style="stroke:#181818;stroke-width:0.5;" x1="163.73" x2="408.4214" y1="666.7569" y2="666.7569"/><ellipse cx="173.73" cy="680.4053" fill="#84BE84" rx="3" ry="3" style="stroke:#038048;stroke-width:1.0;"/><text fill="#000000" font-family="sans-serif" font-size="14" lengthAdjust="spacing" textLength="220.6914" x="182.73" y="683.752">debiter(montant: double) : void</text></g><!--class CompteSansDecouvert--><g id="elem_CompteSansDecouvert"><rect codeLine="33" fill="#F1F1F1" height="64.2969" id="CompteSansDecouvert" rx="2.5" ry="2.5" style="stroke:#181818;stroke-width:0.5;" width="246.6914" x="444.73" y="618.6"/><ellipse cx="483.7681" cy="634.6" fill="#ADD1B2" rx="11" ry="11" style="stroke:#181818;stroke-width:1.0;"/><path d="M486.7368,640.2406 Q486.1587,640.5375 485.5181,640.6781 Q484.8775,640.8344 484.1743,640.8344 Q481.6743,640.8344 480.3462,639.1937 Q479.0337,637.5375 479.0337,634.4125 Q479.0337,631.2875 480.3462,629.6312 Q481.6743,627.975 484.1743,627.975 Q484.8775,627.975 485.5181,628.1312 Q486.1743,628.2875 486.7368,628.5844 L486.7368,631.3031 Q486.1118,630.725 485.5181,630.4594 Q484.9243,630.1781 484.2993,630.1781 Q482.9556,630.1781 482.2681,631.2562 Q481.5806,632.3187 481.5806,634.4125 Q481.5806,636.5062 482.2681,637.5844 Q482.9556,638.6469 484.2993,638.6469 Q484.9243,638.6469 485.5181,638.3812 Q486.1118,638.1 486.7368,637.5219 L486.7368,640.2406 Z " fill="#000000"/><text fill="#000000" font-family="sans-serif" font-size="14" lengthAdjust="spacing" textLength="161.2734" x="503.1099" y="639.4467">CompteSansDecouvert</text><line style="stroke:#181818;stroke-width:0.5;" x1="445.73" x2="690.4214" y1="650.6" y2="650.6"/><line style="stroke:#181818;stroke-width:0.5;" x1="445.73" x2="690.4214" y1="658.6" y2="658.6"/><ellipse cx="455.73" cy="672.2484" fill="#84BE84" rx="3" ry="3" style="stroke:#038048;stroke-width:1.0;"/><text fill="#000000" font-family="sans-serif" font-size="14" lengthAdjust="spacing" textLength="220.6914" x="464.73" y="675.5951">debiter(montant: double) : void</text></g><!--class Banque--><g id="elem_Banque"><rect codeLine="37" fill="#F1F1F1" height="162.0781" id="Banque" rx="2.5" ry="2.5" style="stroke:#181818;stroke-width:0.5;" width="627.3506" x="181.4" y="7"/><ellipse cx="464.1104" cy="23" fill="#ADD1B2" rx="11" ry="11" style="stroke:#181818;stroke-width:1.0;"/><path d="M467.0792,28.6406 Q466.5011,28.9375 465.8604,29.0781 Q465.2198,29.2344 464.5167,29.2344 Q462.0167,29.2344 460.6886,27.5938 Q459.3761,25.9375 459.3761,22.8125 Q459.3761,19.6875 460.6886,18.0313 Q462.0167,16.375 464.5167,16.375 Q465.2198,16.375 465.8604,16.5313 Q466.5167,16.6875 467.0792,16.9844 L467.0792,19.7031 Q466.4542,19.125 465.8604,18.8594 Q465.2667,18.5781 464.6417,18.5781 Q463.2979,18.5781 462.6104,19.6563 Q461.9229,20.7188 461.9229,22.8125 Q461.9229,24.9063 462.6104,25.9844 Q463.2979,27.0469 464.6417,27.0469 Q465.2667,27.0469 465.8604,26.7813 Q466.4542,26.5 467.0792,25.9219 L467.0792,28.6406 Z " fill="#000000"/><text fill="#000000" font-family="sans-serif" font-size="14" lengthAdjust="spacing" textLength="53.4297" x="484.6104" y="27.8467">Banque</text><line style="stroke:#181818;stroke-width:0.5;" x1="182.4" x2="807.7506" y1="39" y2="39"/><ellipse cx="192.4" cy="52.6484" fill="none" rx="3" ry="3" style="stroke:#038048;stroke-width:1.0;"/><text fill="#000000" font-family="sans-serif" font-size="14" lengthAdjust="spacing" textLength="194.4141" x="201.4" y="55.9951">Map&lt;String, Client&gt; clients</text><ellipse cx="192.4" cy="68.9453" fill="none" rx="3" ry="3" style="stroke:#038048;stroke-width:1.0;"/><text fill="#000000" font-family="sans-serif" font-size="14" lengthAdjust="spacing" textLength="292.0381" x="201.4" y="72.292">Map&lt;String, Gestionnaire&gt; gestionnaires</text><ellipse cx="192.4" cy="85.2422" fill="none" rx="3" ry="3" style="stroke:#038048;stroke-width:1.0;"/><text fill="#000000" font-family="sans-serif" font-size="14" lengthAdjust="spacing" textLength="226.1738" x="201.4" y="88.5889">Map&lt;String, Compte&gt; accounts</text><line style="stroke:#181818;stroke-width:0.5;" x1="182.4" x2="807.7506" y1="95.8906" y2="95.8906"/><ellipse cx="192.4" cy="109.5391" fill="#84BE84" rx="3" ry="3" style="stroke:#038048;stroke-width:1.0;"/><text fill="#000000" font-family="sans-serif" font-size="14" lengthAdjust="spacing" textLength="346.6162" x="201.4" y="112.8857">debiter(compte: Compte, montant: double) : void</text><ellipse cx="192.4" cy="125.8359" fill="#84BE84" rx="3" ry="3" style="stroke:#038048;stroke-width:1.0;"/><text fill="#000000" font-family="sans-serif" font-size="14" lengthAdjust="spacing" textLength="351.1826" x="201.4" y="129.1826">crediter(compte: Compte, montant: double) : void</text><ellipse cx="192.4" cy="142.1328" fill="#84BE84" rx="3" ry="3" style="stroke:#038048;stroke-width:1.0;"/><text fill="#000000" font-family="sans-serif" font-size="14" lengthAdjust="spacing" textLength="224.6836" x="201.4" y="145.4795">deleteUser(userId: String) : void</text><ellipse cx="192.4" cy="158.4297" fill="#84BE84" rx="3" ry="3" style="stroke:#038048;stroke-width:1.0;"/><text fill="#000000" font-family="sans-serif" font-size="14" lengthAdjust="spacing" textLength="601.3506" x="201.4" y="161.7764">changeDecouvert(compte: CompteAvecDecouvert, nouveauDecouvert: double) : void</text></g><!--reverse link Utilisateur to Client--><g id="link_Utilisateur_Client"><path d="M160.2832,166.1613 C165.9932,171.3313 158.41,164.31 164.08,169.08 C195.67,195.67 232.13,222.98 264.01,245.84 " fill="none" id="Utilisateur-backto-Client" style="stroke:#181818;stroke-width:1.0;"/><polygon fill="none" points="146.94,154.08,156.2561,170.6091,164.3103,161.7136,146.94,154.08" style="stroke:#181818;stroke-width:1.0;"/></g><!--reverse link Utilisateur to Gestionnaire--><g id="link_Utilisateur_Gestionnaire"><path d="M81.08,179.33 C81.08,216.41 81.08,241.67 81.08,270.25 " fill="none" id="Utilisateur-backto-Gestionnaire" style="stroke:#181818;stroke-width:1.0;"/><polygon fill="none" points="81.08,161.33,75.08,179.33,87.08,179.33,81.08,161.33" style="stroke:#181818;stroke-width:1.0;"/></g><!--reverse link Compte to CompteAvecDecouvert--><g id="link_Compte_CompteAvecDecouvert"><path d="M364.4993,563.0528 C346.3293,583.1528 338.29,592.03 321.66,610.42 " fill="none" id="Compte-backto-CompteAvecDecouvert" style="stroke:#181818;stroke-width:1.0;"/><polygon fill="none" points="376.57,549.7,360.0484,559.0293,368.9502,567.0764,376.57,549.7" style="stroke:#181818;stroke-width:1.0;"/></g><!--reverse link Compte to CompteSansDecouvert--><g id="link_Compte_CompteSansDecouvert"><path d="M489.6623,563.0513 C510.5223,586.1213 521.85,598.65 539.64,618.31 " fill="none" id="Compte-backto-CompteSansDecouvert" style="stroke:#181818;stroke-width:1.0;"/><polygon fill="none" points="477.59,549.7,485.2119,567.0755,494.1128,559.0272,477.59,549.7" style="stroke:#181818;stroke-width:1.0;"/></g><!--reverse link Banque to Client--><g id="link_Banque_Client"><path codeLine="47" d="M431.4522,179.2353 C413.5322,204.6353 401.05,222.34 384.6,245.65 " fill="none" id="Banque-backto-Client" style="stroke:#181818;stroke-width:1.0;"/><polygon fill="none" points="438.37,169.43,431.6427,172.0267,431.4522,179.2353,438.1796,176.6386,438.37,169.43" style="stroke:#181818;stroke-width:1.0;"/><text fill="#000000" font-family="sans-serif" font-size="13" lengthAdjust="spacing" textLength="59.8584" x="416.08" y="212.1469">manages</text><text fill="#000000" font-family="sans-serif" font-size="13" lengthAdjust="spacing" textLength="23.0356" x="365.0172" y="234.8612">0..*</text></g><!--reverse link Banque to Gestionnaire--><g id="link_Banque_Gestionnaire"><path codeLine="48" d="M311.9605,174.8022 C263.1305,198.5722 221.01,219.98 173.08,246.08 C159.31,253.58 144.67,262.14 131.22,270.26 " fill="none" id="Banque-backto-Gestionnaire" style="stroke:#181818;stroke-width:1.0;"/><polygon fill="none" points="322.75,169.55,315.6045,168.5796,311.9605,174.8022,319.106,175.7726,322.75,169.55" style="stroke:#181818;stroke-width:1.0;"/><text fill="#000000" font-family="sans-serif" font-size="13" lengthAdjust="spacing" textLength="59.8584" x="262.08" y="212.1469">manages</text><text fill="#000000" font-family="sans-serif" font-size="13" lengthAdjust="spacing" textLength="23.0356" x="115.8309" y="259.481">0..*</text></g><!--reverse link Banque to Compte--><g id="link_Banque_Compte"><path codeLine="49" d="M519.4987,181.1237 C530.7487,235.7937 536.09,297.4 517.08,359.27 C508.62,386.79 492.29,413.74 475.84,436.07 " fill="none" id="Banque-backto-Compte" style="stroke:#181818;stroke-width:1.0;"/><polygon fill="none" points="517.08,169.37,514.3714,176.0531,519.4987,181.1237,522.2072,174.4406,517.08,169.37" style="stroke:#181818;stroke-width:1.0;"/><text fill="#000000" font-family="sans-serif" font-size="13" lengthAdjust="spacing" textLength="59.8584" x="529.08" y="307.2369">manages</text><text fill="#000000" font-family="sans-serif" font-size="13" lengthAdjust="spacing" textLength="23.0356" x="457.3834" y="425.3092">0..*</text></g><!--link Client to Compte--><g id="link_Client_Compte"><path codeLine="50" d="M374.13,359.45 C378.96,369.31 383.79,379.53 388.08,389.27 C394.64,404.18 401.17,420.58 406.95,435.8 " fill="none" id="Client-Compte" style="stroke:#181818;stroke-width:1.0;"/><text fill="#000000" font-family="sans-serif" font-size="13" lengthAdjust="spacing" textLength="33.5981" x="396.08" y="402.3369">owns</text><text fill="#000000" font-family="sans-serif" font-size="13" lengthAdjust="spacing" textLength="8.271" x="369.1996" y="379.3587">1</text><text fill="#000000" font-family="sans-serif" font-size="13" lengthAdjust="spacing" textLength="23.0356" x="380.0974" y="425.0063">0..*</text></g><!--reverse link Compte to Client--><g id="link_Compte_Client"><path codeLine="51" d="M349.0808,426.7589 C341.5108,417.6689 342.61,416.92 338.08,406.27 C331.93,391.81 330.83,375.17 332.04,359.56 " fill="none" id="Compte-backto-Client" style="stroke:#181818;stroke-width:1.0;"/><polygon fill="none" points="356.76,435.98,355.9941,428.8097,349.0808,426.7589,349.8467,433.9292,356.76,435.98" style="stroke:#181818;stroke-width:1.0;"/><text fill="#000000" font-family="sans-serif" font-size="13" lengthAdjust="spacing" textLength="40.168" x="339.08" y="402.3369">owner</text><text fill="#000000" font-family="sans-serif" font-size="13" lengthAdjust="spacing" textLength="8.271" x="321.9798" y="379.4821">1</text></g><!--SRC=[bLFRJiCm37tVLrZZfR2Bs6k59eqX8HwGaAPzWDjO8rARZCJTa13_JjfaRJC6bAVMnoVsyGqpomPpXhn0Qs7Bif0McIe37oE0gmqRgNPGMJ9FuWnuETR8921AbprhRoW6K1YobceaqxeWL51YGQFFqSYdNXUI50EzCodnNKcRfYh9Q4-kuMVSttdN5DQwt3Cj0VDSLufjxKSXLjvCyiQT1jerf73GiYbXhvqqGTvXLm_a7Xp8S5AJWjnEwIDPbbefb8P-rilQosfY-Dyw1CODzocZNeSA6qSD2rrb1O7LXMZQ9oYJJ2OfjM9Kd88dzEl93ObVELtNcpIh0-LjqMr9FMsJ84ASIAkAjP5saA2pP1jKzezaGmFUetghmgDe4PhrMBeUrrzxxkuFS0cxdcM7hDH9NhnFKnWoa7-y4LGGqzOTMkBFxxH6KU1NL3lg5ZQE7yrrwaxK_M3L8fSQ6rggPpCOtyxdD-FJOQRkNXMwPbsWH1Vn6p5CkQE4uEF562wmz54vYhUQA8kU7ESaymK0]--></g></svg>